<svg id="Слой_1" data-name="Слой 1" xmlns="http://www.w3.org/2000/svg" viewBox="0 0 219.07 88.11"><defs><style>.cls-1{fill:#f93d3d;stroke:#f93d3d;stroke-miterlimit:10;stroke-width:0.1px;}.cls-2{fill:#0e4365;}.cls-3{font-size:11.78px;font-family:Myriad Pro;}</style></defs><title>logogo</title><path d="M47.73,164.31a3.25,3.25,0,0,1-3.28,3.23,3.3,3.3,0,0,1-2.43-1l0.47-.43a2.69,2.69,0,0,0,2,.82A2.48,2.48,0,0,0,47,164.64H44V164h3a2.48,2.48,0,0,0-2.51-2.24,2.72,2.72,0,0,0-2,.82L42,162.14A3.29,3.29,0,0,1,47.73,164.31Z" transform="translate(-42.02 -82.32)"/><path d="M54.29,165.47a1.31,1.31,0,0,0-1.25-.88H52v2.89H51.27v-6.33H52v2.78h0.95a1.29,1.29,0,0,0,1.25-.88l1.24-1.9h0.82l-1.42,2.14a2.49,2.49,0,0,1-.87.94,2,2,0,0,1,1,1l1.48,2.25H55.6Z" transform="translate(-42.02 -82.32)"/><path d="M64.87,162.14l-0.47.42a2.72,2.72,0,0,0-2-.82,2.57,2.57,0,0,0,0,5.14,2.7,2.7,0,0,0,2-.82l0.47,0.43a3.3,3.3,0,0,1-2.43,1A3.23,3.23,0,1,1,64.87,162.14Z" transform="translate(-42.02 -82.32)"/><path d="M71.31,165.47a1.31,1.31,0,0,0-1.25-.88H69v2.89H68.29v-6.33H69v2.78H70a1.29,1.29,0,0,0,1.25-.88l1.24-1.9h0.82l-1.42,2.14a2.49,2.49,0,0,1-.87.94,2,2,0,0,1,1,1l1.48,2.25H72.62Z" transform="translate(-42.02 -82.32)"/><path d="M77.24,167.48l1.37-2.26-2.47-4.07H77L79,164.49l2.05-3.35H81.9L78,167.48H77.24Z" transform="translate(-42.02 -82.32)"/><path d="M87,161.15c1.64,0,2.82.87,2.82,2.32S88.65,165.8,87,165.8H85.69v1.68H85v-6.33h2Zm0,4c1.11,0,2.09-.49,2.09-1.67s-1-1.66-2.09-1.66H85.69v3.33h1.36Z" transform="translate(-42.02 -82.32)"/><path d="M98.66,162.14l-0.47.42a2.72,2.72,0,0,0-2-.82,2.57,2.57,0,0,0,0,5.14,2.69,2.69,0,0,0,2-.82l0.47,0.43a3.3,3.3,0,0,1-2.43,1A3.23,3.23,0,1,1,98.66,162.14Z" transform="translate(-42.02 -82.32)"/><path d="M106.16,167.48v-5l-3.76,5H102v-6.33h0.72v4.95l3.77-4.95h0.4v6.33h-0.72Z" transform="translate(-42.02 -82.32)"/><path d="M116.88,164.31a3.28,3.28,0,1,1-3.29-3.23A3.26,3.26,0,0,1,116.88,164.31Zm-5.85,0a2.57,2.57,0,1,0,2.56-2.57A2.52,2.52,0,0,0,111,164.31Z" transform="translate(-42.02 -82.32)"/><path d="M124.48,167.48V164.6H121v2.88h-0.72v-6.33H121v2.79h3.43v-2.79h0.72v6.33h-0.72Z" transform="translate(-42.02 -82.32)"/><path d="M133.09,167.48V164.6h-3.43v2.88h-0.72v-6.33h0.72v2.79h3.43v-2.79h0.72v6.33h-0.72Z" transform="translate(-42.02 -82.32)"/><path d="M143.81,164.31a3.28,3.28,0,1,1-3.29-3.23A3.26,3.26,0,0,1,143.81,164.31Zm-5.85,0a2.57,2.57,0,1,0,2.56-2.57A2.52,2.52,0,0,0,138,164.31Z" transform="translate(-42.02 -82.32)"/><path d="M151.22,164v0.66h-3.16v2.21h3.36v0.66h-4.08v-6.33h4.08v0.66h-3.36V164h3.16Z" transform="translate(-42.02 -82.32)"/><path d="M162.35,163.65c1.44,0,2.15.74,2.15,1.92s-0.64,1.91-2.15,1.91h-2.7v-6.33h4.09v0.66h-3.37v1.85h2Zm0,3.17c1.08,0,1.45-.45,1.45-1.25a1.21,1.21,0,0,0-1.45-1.26h-2v2.51h2Z" transform="translate(-42.02 -82.32)"/><path d="M176.29,164.31a3.28,3.28,0,0,1-6.54.33H168.6v2.84h-0.72v-6.33h0.72V164h1.15A3.28,3.28,0,0,1,176.29,164.31Zm-0.72,0a2.56,2.56,0,1,0-2.57,2.57A2.54,2.54,0,0,0,175.57,164.31Z" transform="translate(-42.02 -82.32)"/><path d="M181.87,161.15c1.64,0,2.82.87,2.82,2.32s-1.18,2.33-2.82,2.33h-1.32v1.68h-0.72v-6.33h2Zm0,4c1.11,0,2.09-.49,2.09-1.67s-1-1.66-2.09-1.66h-1.37v3.33h1.37Z" transform="translate(-42.02 -82.32)"/><path d="M194.38,164.31a3.28,3.28,0,1,1-3.29-3.23A3.26,3.26,0,0,1,194.38,164.31Zm-5.85,0a2.56,2.56,0,1,0,2.56-2.57A2.52,2.52,0,0,0,188.53,164.31Z" transform="translate(-42.02 -82.32)"/><path class="cls-1" d="M90.43,92.85l-0.92,4.92a0.77,0.77,0,0,0,.34.78,0.93,0.93,0,0,0,.91.06l4.8-2.32,4.8,2.32a0.93,0.93,0,0,0,.4.09,0.92,0.92,0,0,0,.51-0.15,0.77,0.77,0,0,0,.34-0.78l-0.92-4.92,3.88-3.48a0.75,0.75,0,0,0,.22-0.82,0.85,0.85,0,0,0-.7-0.54l-5.37-.72-2.4-4.47a0.9,0.9,0,0,0-1.55,0l-2.4,4.47L87,88a0.85,0.85,0,0,0-.7.54,0.75,0.75,0,0,0,.22.82Zm2.66-4a0.86,0.86,0,0,0,.65-0.44L95.57,85l1.82,3.4a0.86,0.86,0,0,0,.65.44l4.08,0.55-3,2.65a0.76,0.76,0,0,0-.25.71l0.7,3.74L96,94.68a0.93,0.93,0,0,0-.81,0l-3.65,1.76,0.7-3.74A0.76,0.76,0,0,0,92,92l-3-2.65Zm24.22,28.76a0.92,0.92,0,0,0-1,.23L113.4,121l-2.92-3.16a0.92,0.92,0,0,0-1-.23,0.8,0.8,0,0,0-.57.75v6.95h-3.75v-11.1a0.8,0.8,0,0,0-.56-0.75,0.92,0.92,0,0,0-1,.22l-2.6,2.7-2.45-15.86a0.8,0.8,0,0,0-.44-0.58L96,98.75h0l0,0H95.21l0,0h0l-2.21,1.13a0.8,0.8,0,0,0-.44.58L90,116.33l-2.6-2.7a0.92,0.92,0,0,0-1-.22,0.8,0.8,0,0,0-.56.75v11.1H82.18v-6.95a0.8,0.8,0,0,0-.57-0.75,0.92,0.92,0,0,0-1,.23L77.74,121l-2.95-3.16a0.92,0.92,0,0,0-1-.23,0.8,0.8,0,0,0-.57.75v5.35a0.87,0.87,0,0,0,1.73,0v-3.2l2.08,2.24a0.92,0.92,0,0,0,1.32,0l2-2.22v5.57a0.83,0.83,0,0,0,.87.8H86.8a0.83,0.83,0,0,0,.87-0.8v-9.79L90,118.67a0.92,0.92,0,0,0,.9.23,0.82,0.82,0,0,0,.61-0.65l2.65-17.18,1.42-.73L97,101.08l2.65,17.18a0.82,0.82,0,0,0,.61.65,0.92,0.92,0,0,0,.9-0.23l2.33-2.41v9.79a0.83,0.83,0,0,0,.87.8h5.48a0.83,0.83,0,0,0,.87-0.8v-5.57l2,2.22a0.92,0.92,0,0,0,1.32,0l2.08-2.24v3.2a0.87,0.87,0,0,0,1.73,0v-5.35A0.8,0.8,0,0,0,117.31,117.56Z" transform="translate(-42.02 -82.32)"/><circle class="cls-1" cx="150.73" cy="61.06" r="2.63"/><path class="cls-2" d="M63.39,142a6.52,6.52,0,0,0-1.27-2,6.64,6.64,0,0,0-1.89-1.42,8.31,8.31,0,0,0-2.37-.77,6.84,6.84,0,0,0,1.78-.92A5.88,5.88,0,0,0,61,135.54a5.66,5.66,0,0,0,.82-1.66,6.58,6.58,0,0,0,.28-1.94,6.92,6.92,0,0,0-.7-3.2,6,6,0,0,0-2-2.25,9.54,9.54,0,0,0-3.24-1.33,21.46,21.46,0,0,0-4.7-.44H43.84a2,2,0,0,0-1.29.43,1.7,1.7,0,0,0-.52,1.39V151.3a1.7,1.7,0,0,0,.52,1.39,2,2,0,0,0,1.29.43h8a23.78,23.78,0,0,0,3.3-.21,15.53,15.53,0,0,0,2.79-.65,11.17,11.17,0,0,0,2.39-1.12,7.74,7.74,0,0,0,1.86-1.62,7.22,7.22,0,0,0,1.22-2.17,8.06,8.06,0,0,0,.44-2.74A7,7,0,0,0,63.39,142ZM48,129h3.1a8.61,8.61,0,0,1,2.27.24,3.94,3.94,0,0,1,1.41.69,2.78,2.78,0,0,1,.84,1.13,4,4,0,0,1,.28,1.54,4.16,4.16,0,0,1-.26,1.46,3.27,3.27,0,0,1-.78,1.21,3.69,3.69,0,0,1-1.32.81,6.2,6.2,0,0,1-2.12.3H48V129Zm9.1,17.44a3.45,3.45,0,0,1-1,1.23,4.5,4.5,0,0,1-1.51.75,7.88,7.88,0,0,1-2.16.25H48v-8.08h3.64a10.68,10.68,0,0,1,2.73.29,4.85,4.85,0,0,1,1.72.81,3.4,3.4,0,0,1,1,1.31,4.27,4.27,0,0,1,.35,1.77A3.76,3.76,0,0,1,57.13,146.48Z" transform="translate(-42.02 -82.32)"/><path class="cls-2" d="M87,142.82a5.79,5.79,0,0,0-1.81-2.23,8.72,8.72,0,0,0-3.08-1.42,17.45,17.45,0,0,0-4.43-.49q-1,0-1.82,0l-1.61.11v-6a0.78,0.78,0,0,0-.7-0.66,8.91,8.91,0,0,0-2.38-.22q-0.79,0-1.33.05a4.09,4.09,0,0,0-.86.16,1,1,0,0,0-.47.27,0.57,0.57,0,0,0-.14.38v18.28a2.25,2.25,0,0,0,.5,1.6,2.51,2.51,0,0,0,1.62.64l1.38,0.11,1.48,0.08,1.55,0h1.56a19.52,19.52,0,0,0,5-.56A9.92,9.92,0,0,0,85,151.42,6.45,6.45,0,0,0,87,149a7.47,7.47,0,0,0,.66-3.17A7.1,7.1,0,0,0,87,142.82Zm-6.48,5.72a5.4,5.4,0,0,1-3.41.88q-0.86,0-1.52,0l-1.33-.11v-6.32l1.25-.08q0.66,0,1.46,0a9.15,9.15,0,0,1,2.17.22,3.78,3.78,0,0,1,1.43.65,2.48,2.48,0,0,1,.79,1,3.62,3.62,0,0,1,.24,1.37A3,3,0,0,1,80.56,148.54Z" transform="translate(-42.02 -82.32)"/><path class="cls-2" d="M96.51,152.38a0.57,0.57,0,0,1-.14.38,1,1,0,0,1-.47.27,4.16,4.16,0,0,1-.89.16q-0.56.05-1.44,0.05t-1.4-.05a4.39,4.39,0,0,1-.9-0.16,1,1,0,0,1-.48-0.27,0.57,0.57,0,0,1-.14-0.38V132.8a0.57,0.57,0,0,1,.14-0.38,1,1,0,0,1,.48-0.27,4.39,4.39,0,0,1,.9-0.16q0.56-.05,1.4-0.05T95,132a4.16,4.16,0,0,1,.89.16,1,1,0,0,1,.47.27,0.57,0.57,0,0,1,.14.38v19.58Z" transform="translate(-42.02 -82.32)"/><path class="cls-2" d="M118.14,149.26q0,0.57,0,1a5.38,5.38,0,0,1-.09.65,1.92,1.92,0,0,1-.14.43,1.62,1.62,0,0,1-.36.42,5.15,5.15,0,0,1-1,.61A9.74,9.74,0,0,1,115,153a13.09,13.09,0,0,1-1.88.46,12.21,12.21,0,0,1-2.09.18,12,12,0,0,1-4.25-.7,8,8,0,0,1-3.11-2.07,9,9,0,0,1-1.9-3.35,14.63,14.63,0,0,1-.64-4.52,14.84,14.84,0,0,1,.78-5.08,9.6,9.6,0,0,1,2.18-3.54,8.75,8.75,0,0,1,3.31-2.08,12.43,12.43,0,0,1,4.2-.68,10.83,10.83,0,0,1,1.83.15,11.13,11.13,0,0,1,1.68.42,9.29,9.29,0,0,1,1.4.59,4.3,4.3,0,0,1,.87.57,2.34,2.34,0,0,1,.36.41,1.34,1.34,0,0,1,.16.43,5.38,5.38,0,0,1,.09.65q0,0.38,0,.93a4.8,4.8,0,0,1-.23,1.79,0.7,0.7,0,0,1-.61.52,1.49,1.49,0,0,1-.84-0.31q-0.44-.31-1-0.68a8,8,0,0,0-1.45-.68,5.84,5.84,0,0,0-2-.31,4.07,4.07,0,0,0-3.5,1.66,8.17,8.17,0,0,0-1.21,4.86,11.49,11.49,0,0,0,.3,2.79,5.75,5.75,0,0,0,.9,2,3.72,3.72,0,0,0,1.49,1.22,5,5,0,0,0,2.09.41,5.75,5.75,0,0,0,2.09-.34,8.68,8.68,0,0,0,1.53-.76q0.65-.42,1.1-0.76a1.33,1.33,0,0,1,.75-0.34,0.55,0.55,0,0,1,.35.11,0.76,0.76,0,0,1,.22.41,4.75,4.75,0,0,1,.13.76Q118.14,148.54,118.14,149.26Z" transform="translate(-42.02 -82.32)"/><path class="cls-2" d="M142.75,137.76a8.22,8.22,0,0,0-5.38-5.5,14.78,14.78,0,0,0-4.85-.71,14,14,0,0,0-5,.81,9.24,9.24,0,0,0-5.69,5.85,14,14,0,0,0-.71,4.58,15,15,0,0,0,.65,4.61,8.53,8.53,0,0,0,2,3.4,8.73,8.73,0,0,0,3.4,2.11,14.5,14.5,0,0,0,4.82.72,14.12,14.12,0,0,0,5-.81A9.21,9.21,0,0,0,142.7,147a14.16,14.16,0,0,0,.7-4.56A15.06,15.06,0,0,0,142.75,137.76Zm-5.69,7.63a5.84,5.84,0,0,1-.93,2.07,4.07,4.07,0,0,1-1.61,1.31,5.48,5.48,0,0,1-2.31.45,5.35,5.35,0,0,1-2.42-.49,3.85,3.85,0,0,1-1.55-1.39,6.36,6.36,0,0,1-.83-2.12,12.94,12.94,0,0,1-.26-2.67,11.14,11.14,0,0,1,.31-2.78,6.12,6.12,0,0,1,.94-2.08,4,4,0,0,1,1.61-1.32,5.42,5.42,0,0,1,2.28-.45,5.24,5.24,0,0,1,2.44.5,4,4,0,0,1,1.55,1.4,6.06,6.06,0,0,1,.83,2.12,13.56,13.56,0,0,1,.24,2.67A11.56,11.56,0,0,1,137.06,145.39Z" transform="translate(-42.02 -82.32)"/><path class="cls-2" d="M163.26,134.49a10.37,10.37,0,0,1-.06,1.21,3.06,3.06,0,0,1-.17.77,0.81,0.81,0,0,1-.29.4,0.71,0.71,0,0,1-.38.11h-5.24v15.41a0.58,0.58,0,0,1-.14.38,1,1,0,0,1-.47.27,4.19,4.19,0,0,1-.9.16q-0.57.05-1.43,0.05t-1.4-.05a4.38,4.38,0,0,1-.9-0.16,1,1,0,0,1-.47-0.27,0.61,0.61,0,0,1-.13-0.38V137H146a0.7,0.7,0,0,1-.41-0.12,0.88,0.88,0,0,1-.29-0.41,3.08,3.08,0,0,1-.17-0.79,10.88,10.88,0,0,1-.06-1.23,7.35,7.35,0,0,1,.07-1.11,3.32,3.32,0,0,1,.19-0.74,0.92,0.92,0,0,1,.28-0.41,0.65,0.65,0,0,1,.4-0.12h16.31a0.66,0.66,0,0,1,.38.12,0.88,0.88,0,0,1,.29.41,3,3,0,0,1,.17.76A9.62,9.62,0,0,1,163.26,134.49Z" transform="translate(-42.02 -82.32)"/><path class="cls-2" d="M183.63,135.78a5.35,5.35,0,0,0-1.63-2.4,7.22,7.22,0,0,0-2.86-1.38,18.63,18.63,0,0,0-6.85-.24,18.58,18.58,0,0,0-2.39.54A13.89,13.89,0,0,0,168,133a4.37,4.37,0,0,0-1.14.7,1.63,1.63,0,0,0-.44.71,3.94,3.94,0,0,0-.12,1.08,5.61,5.61,0,0,0,.07.92,2.9,2.9,0,0,0,.2.7,1.12,1.12,0,0,0,.33.44,0.72,0.72,0,0,0,.45.15,2.26,2.26,0,0,0,1-.31q0.59-.31,1.48-0.68a15.66,15.66,0,0,1,2-.68,10.21,10.21,0,0,1,2.62-.31,6.84,6.84,0,0,1,1.88.22,2.73,2.73,0,0,1,1.21.68,2.65,2.65,0,0,1,.65,1.15,5.9,5.9,0,0,1,.2,1.61v1.19h-2a26.57,26.57,0,0,0-4.87.4A11,11,0,0,0,168,142.2a5.6,5.6,0,0,0-2.12,2.08,6,6,0,0,0-.71,3,6.42,6.42,0,0,0,.56,2.77,5.48,5.48,0,0,0,1.57,2,7,7,0,0,0,2.4,1.21,10.79,10.79,0,0,0,3,.41,9,9,0,0,0,3.65-.72,9.45,9.45,0,0,0,2.93-2v1.56a0.61,0.61,0,0,0,.2.48,1.36,1.36,0,0,0,.68.25,10.71,10.71,0,0,0,1.53.08,10.56,10.56,0,0,0,1.48-.08,1.66,1.66,0,0,0,.73-0.25,0.57,0.57,0,0,0,.23-0.48V139.27A10.63,10.63,0,0,0,183.63,135.78Zm-5.24,11.61a9.3,9.3,0,0,1-2.11,1.73,4.5,4.5,0,0,1-2.27.59,3.44,3.44,0,0,1-2.3-.7,2.4,2.4,0,0,1-.83-1.93,2.74,2.74,0,0,1,.29-1.28,2.5,2.5,0,0,1,.92-1,4.82,4.82,0,0,1,1.63-.59,12.75,12.75,0,0,1,2.42-.2h2.24v3.34Z" transform="translate(-42.02 -82.32)"/><path class="cls-2" d="M216.34,127.09a8.79,8.79,0,0,1-.06,1.09,2.85,2.85,0,0,1-.17.72,1,1,0,0,1-.29.41,0.63,0.63,0,0,1-.38.13h-7.55v22.89a0.59,0.59,0,0,1-.15.4,1.07,1.07,0,0,1-.5.29,5.16,5.16,0,0,1-.94.18,16.67,16.67,0,0,1-3,0,5.18,5.18,0,0,1-.94-0.18,1.08,1.08,0,0,1-.5-0.29,0.59,0.59,0,0,1-.15-0.4V129.44h-7.55a0.61,0.61,0,0,1-.4-0.13,1,1,0,0,1-.28-0.41,2.79,2.79,0,0,1-.17-0.72,8.64,8.64,0,0,1-.06-1.09,9.12,9.12,0,0,1,.06-1.12,2.81,2.81,0,0,1,.17-0.74,0.93,0.93,0,0,1,.28-0.4,0.65,0.65,0,0,1,.4-0.12h21.26a0.66,0.66,0,0,1,.38.12,0.89,0.89,0,0,1,.29.4,2.87,2.87,0,0,1,.17.74A9.29,9.29,0,0,1,216.34,127.09Z" transform="translate(-42.02 -82.32)"/><path class="cls-2" d="M229.6,153.12l-2.52,6.93a1.51,1.51,0,0,1-1.14.79,11.61,11.61,0,0,1-2.73.24,11.47,11.47,0,0,1-1.49-.08,2.17,2.17,0,0,1-.84-0.25,0.57,0.57,0,0,1-.3-0.44,1.34,1.34,0,0,1,.14-0.64l2.77-6.56a1.57,1.57,0,0,1-.55-0.41,1.87,1.87,0,0,1-.36-0.58l-7.16-18a3.54,3.54,0,0,1-.3-1.17,0.78,0.78,0,0,1,.28-0.64,1.91,1.91,0,0,1,.94-0.32,14,14,0,0,1,1.76-.09q1,0,1.58,0a3,3,0,0,1,.91.16,1,1,0,0,1,.49.41,4,4,0,0,1,.33.78l4.89,13.1h0.07L230.86,133a1.46,1.46,0,0,1,.36-0.76A1.57,1.57,0,0,1,232,132a12.31,12.31,0,0,1,1.79-.09,13.1,13.1,0,0,1,1.67.09,2.07,2.07,0,0,1,1,.33,0.77,0.77,0,0,1,.31.65,3,3,0,0,1-.19,1Z" transform="translate(-42.02 -82.32)"/><path class="cls-2" d="M260.62,138.13a10.1,10.1,0,0,0-1.48-3.42,7.21,7.21,0,0,0-2.62-2.32,8.28,8.28,0,0,0-3.89-.84,9.3,9.3,0,0,0-2.06.22,8.4,8.4,0,0,0-1.88.67,10.85,10.85,0,0,0-1.78,1.12,20.73,20.73,0,0,0-1.78,1.55v-2.3a0.65,0.65,0,0,0-.12-0.38,0.85,0.85,0,0,0-.41-0.27,3.32,3.32,0,0,0-.77-0.16,10.57,10.57,0,0,0-1.18-.05,10.82,10.82,0,0,0-1.2.05,3.31,3.31,0,0,0-.77.16,0.85,0.85,0,0,0-.41.27,0.64,0.64,0,0,0-.12.38v27.34a0.62,0.62,0,0,0,.14.4,1.05,1.05,0,0,0,.48.3,4.19,4.19,0,0,0,.9.19,15.38,15.38,0,0,0,2.84,0,4.21,4.21,0,0,0,.9-0.19,1.06,1.06,0,0,0,.48-0.3,0.62,0.62,0,0,0,.14-0.4v-9.22a16.38,16.38,0,0,0,1.44,1.19,9.19,9.19,0,0,0,1.41.84,6.66,6.66,0,0,0,1.47.5,7.85,7.85,0,0,0,1.67.16,9.14,9.14,0,0,0,3.89-.79,7.6,7.6,0,0,0,2.84-2.26,10.35,10.35,0,0,0,1.74-3.57,17.27,17.27,0,0,0,.59-4.71A17.92,17.92,0,0,0,260.62,138.13Zm-5.88,6.8a7,7,0,0,1-.76,2,4.32,4.32,0,0,1-1.32,1.44,3.37,3.37,0,0,1-1.95.55,4,4,0,0,1-2.33-.8,13.28,13.28,0,0,1-2.35-2.27v-6.45a14,14,0,0,1,1.33-1.47,8,8,0,0,1,1.22-1,4.58,4.58,0,0,1,1.17-.54,4.14,4.14,0,0,1,1.15-.16,3.35,3.35,0,0,1,1.95.54,4,4,0,0,1,1.26,1.44,6.81,6.81,0,0,1,.68,2.05,14.2,14.2,0,0,1,.2,2.4A10.45,10.45,0,0,1,254.73,144.94Z" transform="translate(-42.02 -82.32)"/><text class="cls-3" transform="translate(156.77 85.16) scale(1.08 1)">№1</text></svg>